<?xml version="1.0" standalone="no"?>
<!DOCTYPE svg PUBLIC "-//W3C//DTD SVG 20010904//EN"
 "http://www.w3.org/TR/2001/REC-SVG-20010904/DTD/svg10.dtd">
<svg version="1.0" xmlns="http://www.w3.org/2000/svg"
 width="127.000000pt" height="127.000000pt" viewBox="0 0 127.000000 127.000000"
 preserveAspectRatio="xMidYMid meet">
<metadata>
Created by potrace 1.14, written by Peter Selinger 2001-2017
</metadata>
<g transform="translate(0.000000,127.000000) scale(0.100000,-0.100000)"
fill="#000000" stroke="none">
<path d="M229 1004 c-5 -6 -6 -14 -2 -17 3 -4 2 -7 -4 -7 -6 0 -14 -17 -17
-37 -12 -74 -14 -84 -26 -98 -7 -8 -9 -15 -4 -15 4 0 3 -5 -4 -12 -16 -16 -15
-31 1 -22 7 5 6 1 -3 -10 -8 -10 -15 -23 -16 -30 -2 -6 -6 -22 -9 -36 -3 -14
-7 -29 -8 -35 -2 -5 -6 -16 -10 -22 -5 -7 -6 -13 -2 -13 3 0 1 -8 -4 -19 -6
-10 -13 -33 -16 -51 -3 -18 -12 -48 -20 -66 -8 -19 -12 -34 -10 -34 2 0 -5
-26 -16 -57 -11 -32 -22 -65 -24 -73 -2 -8 -4 -16 -5 -17 -2 -2 -3 -6 -4 -10
-1 -5 -5 -13 -9 -20 -4 -7 1 -14 15 -19 37 -12 78 -13 72 -2 -4 6 1 6 12 0 28
-15 50 5 64 58 7 25 15 52 18 60 8 23 9 28 11 51 0 11 6 17 11 14 6 -3 10 -2
10 2 0 5 13 9 30 9 20 1 27 -2 23 -10 -5 -8 -3 -8 8 0 13 9 26 11 47 4 20 -6
68 -4 80 4 7 5 12 4 12 -3 0 -7 4 -10 8 -7 16 10 28 -10 52 -84 26 -81 37
-103 51 -94 5 3 9 1 9 -4 0 -7 51 -8 105 -3 13 1 14 41 2 41 -5 0 -7 6 -4 14
3 7 -1 26 -9 41 -8 15 -14 34 -14 41 0 8 -4 14 -9 14 -4 0 -6 11 -3 25 2 14 0
25 -5 25 -5 0 -10 6 -11 13 -2 22 -7 42 -15 55 -5 6 -6 12 -3 12 3 0 -1 18 -9
40 -8 22 -11 40 -8 40 4 0 2 5 -5 12 -7 7 -12 25 -12 40 0 15 -4 28 -8 28 -5
0 -9 6 -9 13 0 6 -6 32 -13 57 -18 58 -17 57 -19 76 0 8 -5 13 -9 10 -4 -3 -7
8 -6 25 1 16 -2 29 -7 29 -5 0 -9 8 -9 18 0 10 -5 29 -12 43 -12 25 -14 26
-116 25 -62 -1 -107 -5 -113 -12z m128 -121 c3 -49 15 -103 22 -103 4 0 8 -12
9 -26 1 -14 5 -31 9 -37 4 -6 8 -21 9 -34 2 -13 5 -32 9 -43 8 -24 -18 -32
-95 -28 -48 3 -55 5 -52 23 6 49 9 61 14 70 7 13 22 87 20 98 -2 4 4 14 11 22
8 7 13 27 12 44 -1 16 2 28 6 25 4 -2 10 0 14 6 9 14 10 13 12 -17z"/>
<path d="M845 1010 c-3 -5 -23 -10 -44 -10 -20 0 -42 -5 -49 -12 -9 -9 -12 -9
-12 2 0 11 -3 11 -12 2 -10 -10 -13 -97 -14 -362 l-1 -349 41 -7 c91 -15 340
1 355 23 3 6 14 9 24 7 9 -1 17 2 17 7 0 5 6 9 13 9 15 0 41 29 67 74 20 36
24 128 7 161 -15 30 -89 95 -101 89 -6 -4 9 12 33 35 25 23 42 41 38 41 -3 0
0 12 8 26 16 32 12 111 -9 155 -15 30 -75 81 -101 85 -5 0 -12 2 -15 3 -16 7
-51 12 -97 13 -29 1 -50 4 -48 7 1 3 -7 6 -20 6 -13 0 -21 -3 -18 -8 5 -9 -27
-4 -44 6 -6 4 -14 3 -18 -3z m113 -123 c7 -5 12 -3 12 3 0 8 7 9 18 5 9 -4 25
-8 35 -10 9 -2 22 -7 27 -10 18 -11 39 -62 35 -85 -5 -25 -32 -70 -43 -71 -4
0 -16 -3 -27 -5 -37 -8 -136 -7 -145 2 -11 11 -16 96 -7 111 4 7 3 14 -3 18
-18 11 9 48 31 42 10 -3 19 -1 19 4 0 10 29 7 48 -4z m52 -309 c46 0 107 -46
96 -73 -3 -8 0 -15 7 -16 9 0 9 -2 0 -6 -7 -2 -13 -15 -13 -27 0 -29 -31 -58
-64 -60 -14 0 -26 -4 -26 -7 0 -3 -33 -5 -74 -5 l-75 1 2 95 2 95 45 5 c25 3
48 4 53 2 4 -2 25 -4 47 -4z"/>
</g>
</svg>
